<mxfile host="65bd71144e">
    <diagram id="ZjIbt0ZXIwbJ4BmFo_Hf" name="Page-1">
        <mxGraphModel dx="704" dy="496" grid="1" gridSize="10" guides="1" tooltips="1" connect="1" arrows="1" fold="1" page="1" pageScale="1" pageWidth="850" pageHeight="1100" math="0" shadow="0">
            <root>
                <mxCell id="0"/>
                <mxCell id="1" parent="0"/>
                <mxCell id="2" value="PHOTO" style="ellipse;whiteSpace=wrap;html=1;aspect=fixed;" parent="1" vertex="1">
                    <mxGeometry x="40" y="100" width="120" height="120" as="geometry"/>
                </mxCell>
                <mxCell id="3" value="&amp;lt; NAV /&amp;gt;" style="rounded=0;whiteSpace=wrap;html=1;" parent="1" vertex="1">
                    <mxGeometry width="600" height="60" as="geometry"/>
                </mxCell>
                <mxCell id="5" value="ABOUT ME" style="rounded=0;whiteSpace=wrap;html=1;" parent="1" vertex="1">
                    <mxGeometry x="35" y="240" width="130" height="110" as="geometry"/>
                </mxCell>
                <mxCell id="6" value="CREATE POST" style="rounded=0;whiteSpace=wrap;html=1;" parent="1" vertex="1">
                    <mxGeometry x="210" y="170" width="380" height="60" as="geometry"/>
                </mxCell>
                <mxCell id="7" value="FRIENDS LIST" style="rounded=0;whiteSpace=wrap;html=1;" parent="1" vertex="1">
                    <mxGeometry x="210" y="90" width="380" height="60" as="geometry"/>
                </mxCell>
                <mxCell id="8" value="PAST USER POSTS" style="rounded=0;whiteSpace=wrap;html=1;" parent="1" vertex="1">
                    <mxGeometry x="210" y="250" width="380" height="100" as="geometry"/>
                </mxCell>
                <mxCell id="9" value="LOGOUT" style="rounded=0;whiteSpace=wrap;html=1;" parent="1" vertex="1">
                    <mxGeometry x="520" y="10" width="60" height="40" as="geometry"/>
                </mxCell>
                <mxCell id="10" value="SPACE BOOK" style="rounded=0;whiteSpace=wrap;html=1;strokeColor=none;" parent="1" vertex="1">
                    <mxGeometry x="10" y="10" width="80" height="40" as="geometry"/>
                </mxCell>
                <mxCell id="11" value="EDIT&amp;nbsp;" style="ellipse;whiteSpace=wrap;html=1;aspect=fixed;" parent="1" vertex="1">
                    <mxGeometry x="140" y="320" width="40" height="40" as="geometry"/>
                </mxCell>
                <mxCell id="13" value="VIEW ALL USERS" style="rounded=0;whiteSpace=wrap;html=1;" parent="1" vertex="1">
                    <mxGeometry x="100" y="10" width="120" height="40" as="geometry"/>
                </mxCell>
            </root>
        </mxGraphModel>
    </diagram>
</mxfile>